<svg width="1304" height="1074" viewBox="0 0 1304 1074" fill="none" xmlns="http://www.w3.org/2000/svg">
<path opacity="0.5" d="M354.525 501.225C162.429 757.497 0 609.871 0 609.871V1073.99H1304V0C1304 0 1212.09 380.786 995.658 363.581C779.231 346.375 546.622 244.953 354.525 501.225Z" fill="#51759E"/>
<path opacity="0.5" d="M354.525 501.225C137.644 719.917 0 609.871 0 609.871V1073.99H1304V0C1304 0 1199.41 340.942 995.658 363.581C791.908 386.22 571.406 282.533 354.525 501.225Z" fill="#51759E"/>
<path opacity="0.5" d="M405.689 478.586C179.3 665.131 0 609.871 0 609.871V1073.99H1304V0C1304 0 1250.12 384.472 1049.99 339.131C849.864 293.789 632.078 292.042 405.689 478.586Z" fill="#51759E"/>
</svg>
